<svg width="149" height="182" viewBox="-12 -12 149 182" fill="none" xmlns="http://www.w3.org/2000/svg">
<g transform="translate(74.5 141) scale(0.8) translate(-74.5 -147)">
<path d="M2.92188 149V115.18H10V143.164H24.7891V149H2.92188ZM27.7844 149V115.18H34.8625V149H27.7844ZM47.3734 149V121.016H37.6V115.18H64.2484V121.016H54.4516V149H47.3734ZM75.0484 149V121.016H65.275V115.18H91.9234V121.016H82.1266V149H75.0484ZM94.6375 149V115.18H117.044V121.016H101.716V129.125H116.177V134.656H101.716V143.164H117.044V149H94.6375ZM120.953 149V115.18H134.922C137.453 115.18 139.617 115.609 141.414 116.469C143.227 117.328 144.609 118.57 145.562 120.195C146.531 121.805 147.016 123.742 147.016 126.008V126.055C147.016 128.273 146.461 130.25 145.352 131.984C144.258 133.719 142.773 134.953 140.898 135.688L148.023 149H140.008L133.703 136.742C133.656 136.742 133.602 136.742 133.539 136.742C133.477 136.742 133.414 136.742 133.352 136.742H128.031V149H120.953ZM128.031 131.375H134.148C135.914 131.375 137.289 130.906 138.273 129.969C139.273 129.016 139.773 127.711 139.773 126.055V126.008C139.773 124.383 139.258 123.094 138.227 122.141C137.195 121.188 135.805 120.711 134.055 120.711H128.031V131.375Z" fill="var(--logo-litter)"/>
<path d="M41.9531 178V155.453H45.4531V164.984H57.0156V155.453H60.5312V178H57.0156V168.016H45.4531V178H41.9531ZM72.0625 178.328C70.4583 178.328 69.0729 177.984 67.9062 177.297C66.75 176.599 65.8594 175.615 65.2344 174.344C64.6198 173.062 64.3125 171.557 64.3125 169.828V169.812C64.3125 168.104 64.625 166.609 65.25 165.328C65.875 164.036 66.7552 163.036 67.8906 162.328C69.026 161.609 70.3594 161.25 71.8906 161.25C73.4323 161.25 74.7552 161.594 75.8594 162.281C76.974 162.958 77.8333 163.922 78.4375 165.172C79.0417 166.411 79.3438 167.854 79.3438 169.5V170.641H65.9844V168.25H77.7031L76.0312 170.484V169.172C76.0312 168.016 75.8542 167.057 75.5 166.297C75.1562 165.526 74.6719 164.953 74.0469 164.578C73.4323 164.203 72.7188 164.016 71.9062 164.016C71.1042 164.016 70.3854 164.214 69.75 164.609C69.1146 165.005 68.6146 165.589 68.25 166.359C67.8854 167.12 67.7031 168.057 67.7031 169.172V170.484C67.7031 171.547 67.8802 172.458 68.2344 173.219C68.599 173.969 69.1146 174.547 69.7812 174.953C70.4479 175.349 71.2344 175.547 72.1406 175.547C72.8073 175.547 73.3958 175.448 73.9062 175.25C74.4167 175.042 74.8385 174.771 75.1719 174.438C75.5156 174.094 75.7552 173.714 75.8906 173.297L75.9375 173.172H79.1562L79.125 173.344C78.9896 173.99 78.7344 174.609 78.3594 175.203C77.9844 175.797 77.4948 176.333 76.8906 176.812C76.2969 177.281 75.5938 177.651 74.7812 177.922C73.9688 178.193 73.0625 178.328 72.0625 178.328ZM82.6875 178V161.562H86.0938V164.375H86.1562C86.4167 163.406 86.8802 162.646 87.5469 162.094C88.2135 161.531 89.0156 161.25 89.9531 161.25C90.2031 161.25 90.4271 161.266 90.625 161.297C90.8333 161.318 91 161.344 91.125 161.375V164.516C90.9896 164.464 90.7865 164.422 90.5156 164.391C90.2448 164.349 89.9427 164.328 89.6094 164.328C88.8906 164.328 88.2656 164.484 87.7344 164.797C87.2031 165.099 86.7969 165.542 86.5156 166.125C86.2344 166.698 86.0938 167.391 86.0938 168.203V178H82.6875ZM100.375 178.328C98.8021 178.328 97.4271 177.984 96.25 177.297C95.0833 176.599 94.1771 175.615 93.5312 174.344C92.8854 173.062 92.5625 171.542 92.5625 169.781V169.75C92.5625 168 92.8854 166.49 93.5312 165.219C94.1875 163.948 95.099 162.969 96.2656 162.281C97.4427 161.594 98.8073 161.25 100.359 161.25C101.922 161.25 103.286 161.594 104.453 162.281C105.63 162.958 106.542 163.932 107.188 165.203C107.844 166.474 108.172 167.99 108.172 169.75V169.781C108.172 171.552 107.844 173.073 107.188 174.344C106.542 175.615 105.635 176.599 104.469 177.297C103.302 177.984 101.938 178.328 100.375 178.328ZM100.391 175.484C101.266 175.484 102.026 175.26 102.672 174.812C103.318 174.365 103.818 173.719 104.172 172.875C104.526 172.021 104.703 170.99 104.703 169.781V169.75C104.703 168.552 104.526 167.531 104.172 166.688C103.818 165.833 103.312 165.188 102.656 164.75C102 164.302 101.234 164.078 100.359 164.078C99.4948 164.078 98.7344 164.302 98.0781 164.75C97.4323 165.198 96.9271 165.844 96.5625 166.688C96.1979 167.531 96.0156 168.552 96.0156 169.75V169.781C96.0156 170.99 96.1927 172.021 96.5469 172.875C96.9115 173.719 97.4219 174.365 98.0781 174.812C98.7344 175.26 99.5052 175.484 100.391 175.484Z" fill="var(--logo-hero)"/>
</g>
<g transform="translate(74.5 52) scale(1.28) translate(-74.5 -48)">
<circle cx="74.5" cy="48" r="48" fill="var(--logo-halo)"/>
<path d="M74.5001 48C75.9667 48 77.2223 47.4778 78.2667 46.4334C79.3112 45.3889 79.8334 44.1334 79.8334 42.6667C79.8334 41.2 79.3112 39.9445 78.2667 38.9C77.2223 37.8556 75.9667 37.3334 74.5001 37.3334C73.0334 37.3334 71.7779 37.8556 70.7334 38.9C69.689 39.9445 69.1667 41.2 69.1667 42.6667C69.1667 44.1334 69.689 45.3889 70.7334 46.4334C71.7779 47.4778 73.0334 48 74.5001 48ZM74.5001 74.6667C67.3445 68.5778 62.0001 62.9223 58.4667 57.7C54.9334 52.4778 53.1667 47.6445 53.1667 43.2C53.1667 36.5334 55.3112 31.2223 59.6001 27.2667C63.889 23.3112 68.8556 21.3334 74.5001 21.3334C80.1445 21.3334 85.1112 23.3112 89.4001 27.2667C93.689 31.2223 95.8334 36.5334 95.8334 43.2C95.8334 47.6445 94.0667 52.4778 90.5334 57.7C87.0001 62.9223 81.6556 68.5778 74.5001 74.6667Z" fill="#3EA865"/>
<path d="M66.8779 67.6201C65.9404 66.6826 65.2061 65.5993 64.6748 64.3701C64.1436 63.141 63.8779 61.8701 63.8779 60.5576C63.8779 59.2451 64.1279 57.9483 64.6279 56.667C65.1279 55.3858 65.9404 54.1826 67.0654 53.0576C67.7946 52.3285 68.6956 51.7035 69.7686 51.1826C70.8415 50.6618 72.1123 50.2504 73.5811 49.9483C75.0498 49.6462 76.7269 49.4639 78.6123 49.4014C80.4977 49.3389 82.6071 49.4118 84.9404 49.6201C85.1071 51.8285 85.1592 53.8597 85.0967 55.7139C85.0342 57.5681 84.8623 59.2399 84.5811 60.7295C84.2998 62.2191 83.904 63.5212 83.3936 64.6358C82.8831 65.7504 82.2529 66.6826 81.5029 67.4326C80.3988 68.5368 79.2269 69.3441 77.9873 69.8545C76.7477 70.3649 75.4821 70.6201 74.1904 70.6201C72.8363 70.6201 71.5133 70.3545 70.2217 69.8233C68.93 69.292 67.8154 68.5576 66.8779 67.6201ZM70.3779 67.1201C70.9821 67.4743 71.6019 67.7295 72.2373 67.8858C72.8727 68.042 73.5238 68.1201 74.1904 68.1201C75.1488 68.1201 76.0967 67.9274 77.0342 67.542C77.9717 67.1566 78.8675 66.5368 79.7217 65.6826C80.0967 65.3076 80.4769 64.7816 80.8623 64.1045C81.2477 63.4274 81.5811 62.542 81.8623 61.4483C82.1436 60.3545 82.3571 59.0316 82.5029 57.4795C82.6488 55.9274 82.6696 54.0785 82.5654 51.9326C81.5446 51.891 80.3936 51.8754 79.1123 51.8858C77.8311 51.8962 76.555 51.9951 75.2842 52.1826C74.0133 52.3701 72.805 52.6722 71.6592 53.0889C70.5133 53.5056 69.5758 54.0785 68.8467 54.8076C67.9092 55.7451 67.2633 56.6722 66.9092 57.5889C66.555 58.5056 66.3779 59.391 66.3779 60.2451C66.3779 61.4743 66.6123 62.5524 67.0811 63.4795C67.5498 64.4066 67.9613 65.0576 68.3154 65.4326C69.1904 63.766 70.3467 62.167 71.7842 60.6358C73.2217 59.1045 74.8988 57.8493 76.8154 56.8701C75.3154 58.1826 74.0081 59.667 72.8936 61.3233C71.779 62.9795 70.9404 64.9118 70.3779 67.1201Z" fill="white"/>
</g>
</svg>
