<svg width="206" height="298" viewBox="0 0 206 298" fill="none" xmlns="http://www.w3.org/2000/svg">
<path d="M26.8825 223V188.728H34.1305V217H48.0505V223H26.8825ZM66.8391 223H51.2391V218.872L55.4151 216.952V194.776L51.2391 192.856V188.728H66.8391V192.856L62.6631 194.776V216.952L66.8391 218.872V223ZM85.8794 223H78.6314V194.776H69.3194V188.728H95.1914V194.776H85.8794V223ZM114.614 223H107.366V194.776H98.0538V188.728H123.926V194.776H114.614V223ZM148.939 223H129.211V188.728H148.939V194.68H136.459V202.216H148.075V208.168H136.459V217H148.939V223ZM166.054 188.728C169.158 188.728 171.718 189.112 173.734 189.88C175.75 190.616 177.254 191.752 178.246 193.288C179.238 194.792 179.734 196.696 179.734 199C179.734 200.568 179.43 201.944 178.822 203.128C178.246 204.28 177.462 205.272 176.47 206.104C175.51 206.904 174.47 207.56 173.35 208.072L183.43 223H175.366L167.206 209.848H163.318V223H156.07V188.728H166.054ZM165.526 194.68H163.318V203.944H165.67C167.27 203.944 168.566 203.768 169.558 203.416C170.55 203.064 171.27 202.536 171.718 201.832C172.166 201.096 172.39 200.216 172.39 199.192C172.39 198.104 172.134 197.24 171.622 196.6C171.142 195.928 170.39 195.448 169.366 195.16C168.374 194.84 167.094 194.68 165.526 194.68Z" fill="#EEFCF3"/>
<path d="M87.5356 265H84.2956V255.22H74.0656V265H70.8256V243.58H74.0656V252.46H84.2956V243.58H87.5356V265ZM99.267 248.53C100.687 248.53 101.907 248.83 102.927 249.43C103.947 250.01 104.727 250.85 105.267 251.95C105.827 253.05 106.107 254.35 106.107 255.85V257.59H95.247C95.287 259.25 95.717 260.52 96.537 261.4C97.377 262.28 98.547 262.72 100.047 262.72C101.087 262.72 102.007 262.63 102.807 262.45C103.627 262.25 104.467 261.96 105.327 261.58V264.22C104.527 264.58 103.707 264.85 102.867 265.03C102.047 265.21 101.067 265.3 99.927 265.3C98.367 265.3 96.987 264.99 95.787 264.37C94.587 263.75 93.647 262.83 92.967 261.61C92.307 260.37 91.977 258.85 91.977 257.05C91.977 255.23 92.277 253.69 92.877 252.43C93.497 251.17 94.347 250.21 95.427 249.55C96.527 248.87 97.807 248.53 99.267 248.53ZM99.267 250.99C98.127 250.99 97.207 251.36 96.507 252.1C95.827 252.84 95.427 253.89 95.307 255.25H102.927C102.927 254.41 102.797 253.67 102.537 253.03C102.277 252.39 101.877 251.89 101.337 251.53C100.797 251.17 100.107 250.99 99.267 250.99ZM118.055 248.53C118.335 248.53 118.645 248.55 118.985 248.59C119.325 248.61 119.605 248.64 119.825 248.68L119.495 251.65C119.275 251.59 119.015 251.54 118.715 251.5C118.415 251.46 118.135 251.44 117.875 251.44C117.275 251.44 116.695 251.56 116.135 251.8C115.595 252.02 115.105 252.35 114.665 252.79C114.225 253.21 113.875 253.73 113.615 254.35C113.375 254.97 113.255 255.68 113.255 256.48V265H110.075V248.83H112.595L113.015 251.71H113.135C113.475 251.13 113.885 250.6 114.365 250.12C114.845 249.64 115.395 249.26 116.015 248.98C116.635 248.68 117.315 248.53 118.055 248.53ZM136.483 256.9C136.483 258.24 136.303 259.43 135.943 260.47C135.583 261.51 135.073 262.39 134.413 263.11C133.753 263.83 132.953 264.38 132.013 264.76C131.073 265.12 130.013 265.3 128.833 265.3C127.753 265.3 126.753 265.12 125.833 264.76C124.913 264.38 124.113 263.83 123.433 263.11C122.773 262.39 122.253 261.51 121.873 260.47C121.493 259.43 121.303 258.23 121.303 256.87C121.303 255.09 121.603 253.58 122.203 252.34C122.823 251.1 123.703 250.16 124.843 249.52C126.003 248.86 127.363 248.53 128.923 248.53C130.403 248.53 131.703 248.86 132.823 249.52C133.963 250.16 134.853 251.1 135.493 252.34C136.153 253.58 136.483 255.1 136.483 256.9ZM124.573 256.9C124.573 258.1 124.723 259.14 125.023 260.02C125.323 260.88 125.793 261.54 126.433 262C127.073 262.46 127.893 262.69 128.893 262.69C129.893 262.69 130.713 262.46 131.353 262C131.993 261.54 132.463 260.88 132.763 260.02C133.063 259.14 133.213 258.1 133.213 256.9C133.213 255.66 133.053 254.62 132.733 253.78C132.433 252.94 131.963 252.3 131.323 251.86C130.703 251.4 129.883 251.17 128.863 251.17C127.363 251.17 126.273 251.67 125.593 252.67C124.913 253.67 124.573 255.08 124.573 256.9Z" fill="#4BCA79"/>
<rect x="55" y="60" width="96" height="96" rx="48" fill="#2CA858" fill-opacity="0.2"/>
<path d="M102.999 108C104.466 108 105.722 107.478 106.766 106.433C107.81 105.389 108.333 104.133 108.333 102.667C108.333 101.2 107.81 99.9446 106.766 98.9002C105.722 97.8557 104.466 97.3335 102.999 97.3335C101.533 97.3335 100.277 97.8557 99.2327 98.9002C98.1882 99.9446 97.666 101.2 97.666 102.667C97.666 104.133 98.1882 105.389 99.2327 106.433C100.277 107.478 101.533 108 102.999 108ZM102.999 134.667C95.8438 128.578 90.4993 122.922 86.966 117.7C83.4327 112.478 81.666 107.645 81.666 103.2C81.666 96.5335 83.8105 91.2224 88.0993 87.2668C92.3882 83.3113 97.3549 81.3335 102.999 81.3335C108.644 81.3335 113.61 83.3113 117.899 87.2668C122.188 91.2224 124.333 96.5335 124.333 103.2C124.333 107.645 122.566 112.478 119.033 117.7C115.499 122.922 110.155 128.578 102.999 134.667Z" fill="#3EA865"/>
<path d="M95.377 127.62C94.4395 126.683 93.7051 125.599 93.1738 124.37C92.6426 123.141 92.377 121.87 92.377 120.558C92.377 119.245 92.627 117.948 93.127 116.667C93.627 115.386 94.4395 114.183 95.5645 113.058C96.2936 112.329 97.1947 111.704 98.2676 111.183C99.3405 110.662 100.611 110.25 102.08 109.948C103.549 109.646 105.226 109.464 107.111 109.402C108.997 109.339 111.106 109.412 113.439 109.62C113.606 111.829 113.658 113.86 113.596 115.714C113.533 117.568 113.361 119.24 113.08 120.73C112.799 122.219 112.403 123.521 111.893 124.636C111.382 125.75 110.752 126.683 110.002 127.433C108.898 128.537 107.726 129.344 106.486 129.855C105.247 130.365 103.981 130.62 102.689 130.62C101.335 130.62 100.012 130.355 98.7207 129.823C97.429 129.292 96.3145 128.558 95.377 127.62ZM98.877 127.12C99.4811 127.474 100.101 127.73 100.736 127.886C101.372 128.042 102.023 128.12 102.689 128.12C103.648 128.12 104.596 127.928 105.533 127.542C106.471 127.157 107.367 126.537 108.221 125.683C108.596 125.308 108.976 124.782 109.361 124.105C109.747 123.428 110.08 122.542 110.361 121.448C110.643 120.355 110.856 119.032 111.002 117.48C111.148 115.928 111.169 114.079 111.064 111.933C110.044 111.891 108.893 111.875 107.611 111.886C106.33 111.896 105.054 111.995 103.783 112.183C102.512 112.37 101.304 112.672 100.158 113.089C99.0124 113.506 98.0749 114.079 97.3457 114.808C96.4082 115.745 95.7624 116.672 95.4082 117.589C95.054 118.506 94.877 119.391 94.877 120.245C94.877 121.474 95.1113 122.553 95.5801 123.48C96.0488 124.407 96.4603 125.058 96.8145 125.433C97.6895 123.766 98.8457 122.167 100.283 120.636C101.721 119.105 103.398 117.849 105.314 116.87C103.814 118.183 102.507 119.667 101.393 121.323C100.278 122.98 99.4395 124.912 98.877 127.12Z" fill="white"/>
</svg>
